<?xml version="1.0" encoding="UTF-8" standalone="no"?>
<svg
   inkscape:version="1.1.2 (b8e25be833, 2022-02-05)"
   sodipodi:docname="am_imagotype.svg"
   id="svg69"
   version="1.1"
   viewBox="0 0 42.33 27.78"
   height="105"
   width="160"
   inkscape:export-filename="W:\oh!\customers\Win Software\brand\assets\am_imagotype.png"
   inkscape:export-xdpi="96"
   inkscape:export-ydpi="96"
   xmlns:inkscape="http://www.inkscape.org/namespaces/inkscape"
   xmlns:sodipodi="http://sodipodi.sourceforge.net/DTD/sodipodi-0.dtd"
   xmlns:xlink="http://www.w3.org/1999/xlink"
   xmlns="http://www.w3.org/2000/svg"
   xmlns:svg="http://www.w3.org/2000/svg">
  <sodipodi:namedview
     id="namedview71"
     pagecolor="#ffffff"
     bordercolor="#cccccc"
     borderopacity="1"
     inkscape:pageshadow="0"
     inkscape:pageopacity="0"
     inkscape:pagecheckerboard="false"
     showgrid="true"
     inkscape:zoom="2.8284271"
     inkscape:cx="55.861436"
     inkscape:cy="51.618795"
     inkscape:window-width="1920"
     inkscape:window-height="1017"
     inkscape:window-x="-8"
     inkscape:window-y="-8"
     inkscape:window-maximized="1"
     inkscape:current-layer="svg69">
    <inkscape:grid
       type="xygrid"
       id="grid15593"
       units="px"
       spacingx="0.2645625"
       spacingy="0.26457143"
       visible="false" />
  </sodipodi:namedview>
  <defs
     id="defs67">
    <color-profile
       name="Adobe-RGB--1998-"
       xlink:href="file:///C:/WINDOWS/system32/spool/drivers/color/AdobeRGB1998.icc"
       id="color-profile11982" />
    <inkscape:path-effect
       effect="fillet_chamfer"
       id="path-effect15830"
       is_visible="true"
       lpeversion="1"
       satellites_param="F,0,0,1,0,0,0,2 @ F,0,0,1,0,0,0,2 @ F,0,0,1,0,0,0,2 @ F,0,0,1,0,0,0,2 @ F,0,0,1,0,0,0,2 @ F,0,0,1,0,0,0,2 @ F,0,0,1,0,0,0,2 @ F,0,0,1,0,0,0,2 | F,0,0,1,0,0,0,2 @ F,0,0,1,0,0,0,2 @ F,0,0,1,0,0,0,2 @ F,0,0,1,0,0,0,2"
       unit="px"
       method="auto"
       mode="F"
       radius="0.1"
       chamfer_steps="1"
       flexible="false"
       use_knot_distance="true"
       apply_no_radius="true"
       apply_with_radius="true"
       only_selected="false"
       hide_knots="false" />
    <path
       id="B"
       d="M12.82 27.52V25.2c0-.15-.12-.26-.26-.26h-.2c-.15 0-.26-.12-.26-.26v-.15c0-.15.12-.26.26-.26h2.14c.15 0 .26.12.26.26v.15c0 .15-.12.26-.26.26h-.2c-.15 0-.26.12-.26.26v2.32c0 .15-.12.26-.26.26h-.69c-.15 0-.26-.12-.26-.26z" />
    <path
       id="C"
       d="M15.1 27.52v-3c0-.15.12-.26.26-.26h1.91c.15 0 .26.12.26.26v.15c0 .15-.12.26-.26.26h-.67c-.15 0-.26.12-.26.26v.16c0 .15.12.26.26.26h.62c.15 0 .26.12.26.26v.13c0 .15-.12.26-.26.26h-.62c-.15 0-.26.12-.26.26v.28c0 .15.12.26.26.26h.75c.15 0 .26.12.26.26v.16c0 .15-.12.26-.26.26h-1.99c-.15 0-.26-.12-.26-.26z" />
    <path
       id="D"
       d="M18.03 27.52v-3c0-.15.12-.26.26-.26h.73c.16 0 .3.1.35.25l.4 1.19c.01.02.03.03.05.03s.04-.02.04-.04v-1.16c0-.15.12-.26.26-.26h.65c.15 0 .26.12.26.26v3c0 .15-.12.26-.26.26h-.66c-.16 0-.3-.1-.35-.25l-.44-1.26c-.01-.02-.03-.03-.05-.03s-.04.02-.04.04v1.23c0 .15-.12.26-.26.26h-.66c-.15 0-.26-.12-.26-.26z" />
    <path
       id="E"
       d="M21.51 27.52v-3c0-.15.12-.26.26-.26h.65c.15 0 .26.12.26.26v3c0 .15-.12.26-.26.26h-.65c-.15 0-.26-.12-.26-.26z" />
    <path
       id="F"
       d="M10.44 22.75v-3c0-.15.12-.26.26-.26h.47c.15 0 .26.12.26.26v3c0 .15-.12.26-.26.26h-.47c-.15 0-.26-.12-.26-.26z" />
    <path
       id="G"
       d="M21.33 22.75v-3c0-.15.12-.26.26-.26h1.32c.26 0 .46.04.6.12s.22.2.27.34.07.32.07.52c0 .19-.04.35-.11.46s-.2.19-.4.24c.16.02.28.08.34.17s.1.2.1.34v1.07c0 .15-.12.26-.26.26h-.49c-.15 0-.26-.12-.26-.26v-1.12c0-.1-.03-.17-.09-.19-.01 0-.02-.01-.03-.01-.14-.04-.26.09-.26.24v1.08c0 .15-.12.26-.26.26h-.51c-.07 0-.14-.03-.19-.08s-.08-.12-.08-.19zm1.3-1.96c.14 0 .21-.11.21-.32 0-.14-.02-.23-.05-.27s-.09-.06-.18-.06c-.07 0-.13.03-.17.08s-.07.12-.07.18v.12c0 .14.11.26.25.26z" />
    <path
       id="H"
       d="M20.9 4.95c-1.74.13-3.12 1.52-3.25 3.25l-.01.53v7.94a.26.26 45 0 0 .26.26h6.53a.26.26 135 0 0 .26-.26V8.73l-.01-.53c-.13-1.74-1.52-3.13-3.25-3.25a4.3 4.3 0 0 0-.53 0z" />
  </defs>
  <g
     id="g10747"
     inkscape:export-filename="W:\oh!\customers\Win Software\brand\assets\g10747.png"
     inkscape:export-xdpi="96"
     inkscape:export-ydpi="96">
    <g
       id="g7086"
       transform="matrix(0.99995398,0,0,0.99995398,0.00336228,0.00334283)"
       style="stroke-width:1.00005"
       inkscape:export-filename="W:\oh!\customers\Win Software\brand\assets\am_imagotype.png"
       inkscape:export-xdpi="96"
       inkscape:export-ydpi="96">
      <g
         transform="translate(-7e-4,1e-4)"
         id="g58"
         style="stroke-width:1.00005">
        <g
           fill="#00a1ae"
           fill-rule="evenodd"
           id="g48"
           style="stroke-width:1.00009">
          <circle
             cx="8.4700003"
             cy="8.4700003"
             r="3.53"
             paint-order="stroke fill markers"
             id="circle44"
             style="stroke-width:1.00014" />
          <path
             d="M 20.9,0 C 16.7,0.13 13.23,3.32 12.76,7.49 12.74,7.64 12.85,7.75 13,7.75 h 3.73 c 0.15,0 0.28,-0.12 0.32,-0.26 0.42,-1.82 1.99,-3.14 3.86,-3.26 0.15,-0.01 0.38,-0.01 0.53,0 2.13,0.13 3.83,1.83 3.96,3.96 0.01,0.15 0.01,0.38 0.01,0.53 v 6.8 1.14 a 0.26,0.26 45 0 0 0.26,0.26 h 3.7 a 0.26,0.26 135 0 0 0.26,-0.26 V 16.04 8.72 a 9,9 0 0 1 0.01,-0.53 4.2,4.2 0 0 1 0.02,-0.23 4.4,4.4 0 0 1 0.1,-0.49 l 0.07,-0.26 a 5,5 0 0 1 0.18,-0.49 l 0.12,-0.24 a 7,7 0 0 1 0.25,-0.43 6,6 0 0 1 0.3,-0.39 4.5,4.5 0 0 1 0.37,-0.37 c 0.06,-0.05 0.12,-0.1 0.18,-0.15 0.12,-0.09 0.3,-0.21 0.41,-0.28 L 31.88,4.72 A 4.9,4.9 0 0 1 32.36,4.5 l 0.25,-0.09 a 6.9,6.9 0 0 1 0.49,-0.12 6,6 0 0 1 0.49,-0.06 4.7,4.7 0 0 1 0.53,0 l 0.08,0.01 0.18,0.02 0.1,0.01 0.18,0.03 0.09,0.02 0.21,0.05 0.06,0.01 0.25,0.08 0.05,0.02 0.2,0.08 0.09,0.04 0.16,0.08 0.08,0.04 0.16,0.09 0.08,0.04 0.19,0.12 0.03,0.02 0.21,0.16 0.07,0.06 0.14,0.12 0.07,0.07 0.13,0.13 0.06,0.07 0.13,0.15 0.05,0.06 0.16,0.21 0.02,0.03 0.13,0.2 0.05,0.08 0.08,0.15 0.05,0.09 0.07,0.15 0.04,0.09 0.08,0.19 0.02,0.05 0.08,0.25 0.02,0.08 0.04,0.18 0.02,0.09 0.03,0.18 0.01,0.1 0.02,0.18 0.01,0.08 0.01,0.53 v 6.79 1.15 a 0.26,0.26 45 0 0 0.26,0.26 h 3.7 a 0.26,0.26 135 0 0 0.26,-0.26 V 8.73 8.2 C 42.19,3.74 38.6,0.14 34.13,0 A 10.2,10.2 0 0 0 33.6,0 c -2.24,0.07 -4.37,1.03 -5.91,2.67 -0.1,0.11 -0.26,0.11 -0.36,0 C 25.8,1.04 23.68,0.07 21.43,0 21.28,0 21.17,0 21.17,0 Z"
             paint-order="stroke fill markers"
             id="path46"
             style="stroke-width:1.00014" />
        </g>
        <g
           fill="#0270a3"
           id="g56"
           style="stroke-width:1.00009">
          <use
             xlink:href="#H"
             fill-rule="evenodd"
             paint-order="stroke fill markers"
             id="use50"
             x="0"
             y="0"
             width="100%"
             height="100%"
             style="stroke-width:1.00014" />
          <use
             xlink:href="#H"
             x="12.7"
             fill-rule="evenodd"
             paint-order="stroke fill markers"
             id="use52"
             y="0"
             width="100%"
             height="100%"
             style="stroke-width:1.00014" />
          <path
             d="M 8.2,0 C 3.74,0.14 0.14,3.74 0,8.2 a 10.4,10.4 0 0 0 0,0.53 c 0.14,4.47 3.73,8.06 8.2,8.2 a 9.5,9.5 0 0 0 0.53,0 c 1.31,-0.05 2.59,-0.4 3.74,-1.02 0.13,-0.07 0.23,-0.01 0.23,0.13 v 0.63 a 0.26,0.26 45 0 0 0.26,0.26 h 3.7 a 0.26,0.26 135 0 0 0.26,-0.26 V 8.73 A 0.26,0.26 45 0 0 16.66,8.47 h -3.7 c -0.15,0 -0.26,0.12 -0.27,0.26 -0.13,2.13 -1.83,3.83 -3.96,3.96 a 5.2,5.2 0 0 1 -0.53,0 C 6.07,12.56 4.37,10.86 4.24,8.73 a 5.2,5.2 0 0 1 0,-0.53 C 4.37,6.07 6.07,4.37 8.2,4.24 a 5,5 0 0 1 0.53,0 c 1.39,0.09 2.65,0.87 3.37,2.07 0.07,0.13 0.15,0.12 0.19,-0.03 C 12.62,4.91 13.26,3.64 14.17,2.56 14.26,2.45 14.26,2.28 14.15,2.18 12.65,0.84 10.73,0.07 8.73,0 A 10.3,10.3 0 0 0 8.2,0 Z"
             fill-rule="evenodd"
             paint-order="stroke fill markers"
             id="path54"
             style="stroke-width:1.00014" />
        </g>
      </g>
    </g>
    <g
       id="g10703"
       transform="translate(0,-0.00334297)">
      <g
         id="g15923"
         style="fill:#1d1d3b;fill-opacity:1"
         inkscape:export-filename="W:\oh!\customers\Win Software\brand\assets\am_imagotype.png"
         inkscape:export-xdpi="96"
         inkscape:export-ydpi="96"
         transform="translate(0,0.00334283)">
        <path
           d="M -7.2195e-4,22.488572 0.49722613,19.049143 H 2.2459028 l 0.4891606,3.439429 H 1.7596711 L 1.6864433,21.933573 H 1.0654728 l -0.06444,0.554999 z M 1.1387004,21.384437 h 0.468657 L 1.3818162,19.635409 h -0.046866 z"
           id="path7136"
           style="font-size:4.81346px;line-height:1.25;font-family:Anton;-inkscape-font-specification:Anton;letter-spacing:0px;word-spacing:0px;fill:#1d1d3b;fill-opacity:1;stroke-width:0.264571"
           inkscape:path-effect="#path-effect15830"
           inkscape:original-d="M -7.2195e-4,22.488572 0.49722613,19.049143 H 2.2459028 l 0.4891606,3.439429 H 1.7596711 L 1.6864433,21.933573 H 1.0654728 l -0.06444,0.554999 z M 1.1387004,21.384437 h 0.468657 L 1.3818162,19.635409 h -0.046866 z" />
        <path
           d="m 3.0514069,22.488572 v -3.439429 h 1.4176875 q 0.5565302,0 0.8377245,0.207147 0.2811942,0.205194 0.2811942,0.6019 v 1.610279 q 0,0.488555 -0.2577613,0.754329 -0.2548324,0.265774 -0.8963066,0.265774 z m 1.0369036,-0.607763 h 0.1786756 q 0.2841232,0 0.2841232,-0.183697 V 19.92268 q 0,-0.171971 -0.070299,-0.220827 -0.067369,-0.05081 -0.2782651,-0.05081 H 4.0883097 Z"
           id="path7138"
           style="font-size:4.81346px;line-height:1.25;font-family:Anton;-inkscape-font-specification:Anton;letter-spacing:0px;word-spacing:0px;fill:#1d1d3b;fill-opacity:1;stroke-width:0.264571" />
        <path
           d="m 6.0098045,22.488572 v -3.439429 h 1.5700011 l 0.4335079,2.096878 0.4305785,-2.096878 h 1.584647 v 3.439429 H 9.0853663 V 20.01062 L 8.4936869,22.488572 H 7.5680892 L 6.9412605,20.01062 v 2.477952 z"
           id="path7140"
           style="font-size:4.81346px;line-height:1.25;font-family:Anton;-inkscape-font-specification:Anton;letter-spacing:0px;word-spacing:0px;fill:#1d1d3b;fill-opacity:1;stroke-width:0.264571" />
        <path
           d="m 10.438614,22.488572 v -3.439429 h 0.995896 v 3.439429 z"
           id="path7142"
           style="font-size:4.81346px;line-height:1.25;font-family:Anton;-inkscape-font-specification:Anton;letter-spacing:0px;word-spacing:0px;fill:#1d1d3b;fill-opacity:1;stroke-width:0.264571" />
        <path
           d="m 11.844585,22.488572 v -3.439429 h 1.060336 l 0.474515,1.647408 v -1.647408 h 0.995897 v 3.439429 H 13.36772 l -0.515523,-1.719715 v 1.719715 z"
           id="path7144"
           style="font-size:4.81346px;line-height:1.25;font-family:Anton;-inkscape-font-specification:Anton;letter-spacing:0px;word-spacing:0px;fill:#1d1d3b;fill-opacity:1;stroke-width:0.264571" />
        <path
           d="m 14.785408,22.488572 v -3.439429 h 0.995895 v 3.439429 z"
           id="path7146"
           style="font-size:4.81346px;line-height:1.25;font-family:Anton;-inkscape-font-specification:Anton;letter-spacing:0px;word-spacing:0px;fill:#1d1d3b;fill-opacity:1;stroke-width:0.264571" />
        <path
           d="m 17.415745,22.488571 q -0.705915,0 -1.019329,-0.230319 -0.310485,-0.230318 -0.310485,-0.73318 V 21.194949 H 17.10526 V 21.6172 q 0,0.117079 0.05273,0.184255 0.05566,0.06526 0.190392,0.06526 0.140596,0 0.193321,-0.05375 0.05566,-0.05374 0.05566,-0.176578 0,-0.155465 -0.04687,-0.259108 -0.04686,-0.105562 -0.16403,-0.199609 -0.114232,-0.09596 -0.319273,-0.222642 L 16.604391,20.66713 q -0.518451,-0.320527 -0.518451,-0.73318 0,-0.431847 0.304626,-0.658327 0.307556,-0.22648 0.88752,-0.22648 0.708844,0 1.004683,0.247592 0.298769,0.247593 0.298769,0.752374 h -1.04862 v -0.232235 q 0,-0.06909 -0.06152,-0.107481 -0.05859,-0.03839 -0.161101,-0.03839 -0.123019,0 -0.181605,0.04606 -0.05566,0.04415 -0.05566,0.115159 0,0.07102 0.05859,0.153546 0.05859,0.08253 0.231398,0.190013 l 0.59461,0.374267 q 0.178674,0.111321 0.32806,0.236077 0.149384,0.122836 0.240186,0.287897 0.0908,0.163143 0.0908,0.39922 0,0.475991 -0.269478,0.746616 -0.266548,0.268704 -0.931455,0.268704 z"
           id="path7148"
           style="font-size:4.81346px;line-height:1.25;font-family:Anton;-inkscape-font-specification:Anton;letter-spacing:0px;word-spacing:0px;fill:#1d1d3b;fill-opacity:1;stroke-width:0.264571" />
        <path
           d="M 19.40168,22.488572 V 19.70967 h -0.612183 v -0.660527 h 2.255412 v 0.660527 h -0.612184 v 2.778902 z"
           id="path7150"
           style="font-size:4.81346px;line-height:1.25;font-family:Anton;-inkscape-font-specification:Anton;letter-spacing:0px;word-spacing:0px;fill:#1d1d3b;fill-opacity:1;stroke-width:0.264571" />
        <path
           d="m 21.33196,22.488572 v -3.439429 h 1.581718 q 0.39543,0 0.597538,0.121162 0.202108,0.119207 0.269478,0.336126 0.0703,0.214965 0.0703,0.506143 0,0.281407 -0.108375,0.449471 -0.105446,0.168062 -0.401287,0.232552 0.243116,0.03322 0.339777,0.162201 0.09959,0.127024 0.09959,0.330262 v 1.301512 h -1.016405 v -1.346458 q 0,-0.150476 -0.09373,-0.185651 -0.0908,-0.03714 -0.295839,-0.03714 v 1.56924 z m 1.048621,-2.165277 h 0.248974 q 0.213825,0 0.213825,-0.310721 0,-0.201285 -0.04687,-0.26382 -0.04687,-0.06254 -0.175746,-0.06254 h -0.240187 z"
           id="path7152"
           style="font-size:4.81346px;line-height:1.25;font-family:Anton;-inkscape-font-specification:Anton;letter-spacing:0px;word-spacing:0px;fill:#1d1d3b;fill-opacity:1;stroke-width:0.264571" />
        <path
           d="m 24.050172,22.488572 0.497948,-3.439429 h 1.748677 l 0.489161,3.439429 h -0.975393 l -0.07323,-0.554999 h -0.620971 l -0.06444,0.554999 z m 1.139422,-1.104135 h 0.468657 l -0.22554,-1.749028 h -0.04686 z"
           id="path7154"
           style="font-size:4.81346px;line-height:1.25;font-family:Anton;-inkscape-font-specification:Anton;letter-spacing:0px;word-spacing:0px;fill:#1d1d3b;fill-opacity:1;stroke-width:0.264571" />
        <path
           d="m 27.1023,22.488572 v -3.439429 h 1.417688 q 0.55653,0 0.837724,0.207147 0.281195,0.205194 0.281195,0.6019 v 1.610279 q 0,0.488555 -0.257761,0.754329 -0.254834,0.265774 -0.896307,0.265774 z m 1.036904,-0.607763 h 0.178676 q 0.284123,0 0.284123,-0.183697 V 19.92268 q 0,-0.171971 -0.0703,-0.220827 -0.06737,-0.05081 -0.278266,-0.05081 h -0.114232 z"
           id="path7156"
           style="font-size:4.81346px;line-height:1.25;font-family:Anton;-inkscape-font-specification:Anton;letter-spacing:0px;word-spacing:0px;fill:#1d1d3b;fill-opacity:1;stroke-width:0.264571" />
        <path
           d="m 31.290922,22.488571 q -0.618042,0 -0.946102,-0.243754 -0.325131,-0.245673 -0.325131,-0.70823 v -1.604555 q 0,-0.433768 0.322203,-0.658329 0.325131,-0.22456 0.94903,-0.22456 0.6239,0 0.946101,0.22456 0.325131,0.224561 0.325131,0.658329 v 1.604555 q 0,0.462557 -0.32806,0.70823 -0.325131,0.243754 -0.943172,0.243754 z m 0.0088,-0.62186 q 0.234329,0 0.234329,-0.297496 v -1.6487 q 0,-0.249511 -0.22847,-0.249511 -0.257762,0 -0.257762,0.255269 v 1.646781 q 0,0.157384 0.05859,0.226479 0.05859,0.06718 0.193321,0.06718 z"
           id="path7158"
           style="font-size:4.81346px;line-height:1.25;font-family:Anton;-inkscape-font-specification:Anton;letter-spacing:0px;word-spacing:0px;fill:#1d1d3b;fill-opacity:1;stroke-width:0.264571" />
        <path
           d="m 32.978088,22.488572 v -3.439429 h 1.581717 q 0.39543,0 0.597538,0.121162 0.202108,0.119207 0.269478,0.336126 0.0703,0.214965 0.0703,0.506143 0,0.281407 -0.108375,0.449471 -0.105446,0.168062 -0.401287,0.232552 0.243116,0.03322 0.339777,0.162201 0.09959,0.127024 0.09959,0.330262 v 1.301512 h -1.016405 v -1.346458 q 0,-0.150476 -0.09373,-0.185651 -0.0908,-0.03714 -0.29584,-0.03714 v 1.56924 z m 1.04862,-2.165277 h 0.248974 q 0.213825,0 0.213825,-0.310721 0,-0.201285 -0.04687,-0.26382 -0.04686,-0.06254 -0.175746,-0.06254 h -0.240187 z"
           id="path7160"
           style="font-size:4.81346px;line-height:1.25;font-family:Anton;-inkscape-font-specification:Anton;letter-spacing:0px;word-spacing:0px;fill:#1d1d3b;fill-opacity:1;stroke-width:0.264571" />
      </g>
      <g
         id="g15927"
         style="fill:#1d1d3b;fill-opacity:1"
         inkscape:export-filename="W:\oh!\customers\Win Software\brand\assets\am_imagotype.png"
         inkscape:export-xdpi="96"
         inkscape:export-ydpi="96"
         transform="translate(0,0.00334283)">
        <path
           d="m 37.242868,22.488572 v -3.439429 h 1.417687 q 0.55653,0 0.837724,0.207147 0.281195,0.205194 0.281195,0.6019 v 1.610279 q 0,0.488555 -0.257761,0.754329 -0.254832,0.265774 -0.896307,0.265774 z m 1.036903,-0.607763 h 0.178676 q 0.284123,0 0.284123,-0.183697 V 19.92268 q 0,-0.171971 -0.0703,-0.220827 -0.06737,-0.05081 -0.278266,-0.05081 h -0.114232 z"
           id="path7162"
           style="font-size:4.81346px;line-height:1.25;font-family:Anton;-inkscape-font-specification:Anton;letter-spacing:0px;word-spacing:0px;fill:#1d1d3b;fill-opacity:1;stroke-width:0.264571" />
        <path
           d="m 40.201262,22.488572 v -3.439429 h 2.062091 v 0.664434 h -1.013471 v 0.670299 h 0.972463 v 0.646847 h -0.972463 v 0.78755 h 1.08084 v 0.670299 z"
           id="path7164"
           style="font-size:4.81346px;line-height:1.25;font-family:Anton;-inkscape-font-specification:Anton;letter-spacing:0px;word-spacing:0px;fill:#1d1d3b;fill-opacity:1;stroke-width:0.264571" />
      </g>
      <g
         id="g15943"
         style="fill:#1d1d3b;fill-opacity:1"
         inkscape:export-filename="W:\oh!\customers\Win Software\brand\assets\am_imagotype.png"
         inkscape:export-xdpi="96"
         inkscape:export-ydpi="96"
         transform="translate(0,0.00334283)">
        <g
           id="g15653"
           style="fill:#1d1d3b;fill-opacity:1">
          <path
             d="M -7.1429e-4,27.78 V 23.811429 H 1.8593976 l 0.513613,2.419476 0.5101427,-2.419476 H 4.760617 V 27.78 H 3.6431617 V 24.920824 L 2.9421494,27.78 H 1.8455162 L 1.1028596,24.920824 V 27.78 Z"
             style="font-size:5.64419px;line-height:1.25;font-family:Anton;-inkscape-font-specification:Anton;letter-spacing:0px;word-spacing:0px;fill:#1d1d3b;fill-opacity:1;stroke-width:0.264571"
             id="path7166" />
          <path
             d="M 5.1354159,27.78 5.7253767,23.811429 H 7.7971805 L 8.3767303,27.78 H 7.2211011 L 7.134342,27.139617 H 6.3986262 L 6.3222782,27.78 Z M 6.4853851,26.505997 H 7.0406425 L 6.7734249,24.48789 h -0.055526 z"
             style="font-size:5.64419px;line-height:1.25;font-family:Anton;-inkscape-font-specification:Anton;letter-spacing:0px;word-spacing:0px;fill:#1d1d3b;fill-opacity:1;stroke-width:0.264571"
             id="path7168" />
          <path
             d="m 8.7515287,27.78 v -3.968571 h 1.2562693 l 0.562198,1.900854 v -1.900854 h 1.179922 V 27.78 H 10.556115 L 9.945332,25.795713 V 27.78 Z"
             style="font-size:5.64419px;line-height:1.25;font-family:Anton;-inkscape-font-specification:Anton;letter-spacing:0px;word-spacing:0px;fill:#1d1d3b;fill-opacity:1;stroke-width:0.264571"
             id="path7170" />
          <path
             d="m 12.815319,27.78 v -3.206426 h -0.725305 v -0.762145 h 2.672175 v 0.762145 H 14.036885 V 27.78 Z"
             style="font-size:5.64419px;line-height:1.25;font-family:Anton;-inkscape-font-specification:Anton;letter-spacing:0px;word-spacing:0px;fill:#1d1d3b;fill-opacity:1;stroke-width:0.264571"
             id="path7172" />
          <path
             d="m 15.102285,27.78 v -3.968571 h 2.443132 v 0.766656 h -1.200743 v 0.773421 h 1.152158 v 0.74636 h -1.152158 v 0.908714 h 1.280561 V 27.78 Z"
             style="font-size:5.64419px;line-height:1.25;font-family:Anton;-inkscape-font-specification:Anton;letter-spacing:0px;word-spacing:0px;fill:#1d1d3b;fill-opacity:1;stroke-width:0.264571"
             id="path7174" />
          <path
             d="m 18.027796,27.78 v -3.968571 h 1.25627 l 0.562198,1.900854 v -1.900854 h 1.179922 V 27.78 H 19.832382 L 19.2216,25.795713 V 27.78 Z"
             style="font-size:5.64419px;line-height:1.25;font-family:Anton;-inkscape-font-specification:Anton;letter-spacing:0px;word-spacing:0px;fill:#1d1d3b;fill-opacity:1;stroke-width:0.264571"
             id="path7176" />
          <path
             d="m 21.512037,27.78 v -3.968571 h 1.179922 V 27.78 Z"
             style="font-size:5.64419px;line-height:1.25;font-family:Anton;-inkscape-font-specification:Anton;letter-spacing:0px;word-spacing:0px;fill:#1d1d3b;fill-opacity:1;stroke-width:0.264571"
             id="path7178" />
          <path
             d="m 23.177807,27.78 v -3.968571 h 1.860113 l 0.513613,2.419476 0.510143,-2.419476 h 1.877463 V 27.78 H 26.821683 V 24.920824 L 26.120671,27.78 H 25.024038 L 24.281381,24.920824 V 27.78 Z"
             style="font-size:5.64419px;line-height:1.25;font-family:Anton;-inkscape-font-specification:Anton;letter-spacing:0px;word-spacing:0px;fill:#1d1d3b;fill-opacity:1;stroke-width:0.264571"
             id="path7180" />
          <path
             d="m 28.42499,27.78 v -3.968571 h 1.179923 V 27.78 Z"
             style="font-size:5.64419px;line-height:1.25;font-family:Anton;-inkscape-font-specification:Anton;letter-spacing:0px;word-spacing:0px;fill:#1d1d3b;fill-opacity:1;stroke-width:0.264571"
             id="path7182" />
          <path
             d="m 30.09076,27.78 v -3.968571 h 2.443133 v 0.766656 h -1.200744 v 0.773421 h 1.152159 v 0.746361 h -1.152159 v 0.908714 h 1.280562 V 27.78 Z"
             style="font-size:5.64419px;line-height:1.25;font-family:Anton;-inkscape-font-specification:Anton;letter-spacing:0px;word-spacing:0px;fill:#1d1d3b;fill-opacity:1;stroke-width:0.264571"
             id="path7184" />
          <path
             d="m 33.016275,27.78 v -3.968571 h 1.25627 l 0.562198,1.900854 v -1.900854 h 1.179922 V 27.78 H 34.820861 L 34.210077,25.795713 V 27.78 Z"
             style="font-size:5.64419px;line-height:1.25;font-family:Anton;-inkscape-font-specification:Anton;letter-spacing:0px;word-spacing:0px;fill:#1d1d3b;fill-opacity:1;stroke-width:0.264571"
             id="path7186" />
          <path
             d="m 37.080063,27.78 v -3.206426 h -0.725304 v -0.762145 h 2.672175 v 0.762145 H 38.30163 V 27.78 Z"
             style="font-size:5.64419px;line-height:1.25;font-family:Anton;-inkscape-font-specification:Anton;letter-spacing:0px;word-spacing:0px;fill:#1d1d3b;fill-opacity:1;stroke-width:0.264571"
             id="path7188" />
          <path
             d="m 40.82458,27.78 q -0.732246,0 -1.120926,-0.281254 -0.385209,-0.28347 -0.385209,-0.817189 v -1.85141 q 0,-0.500502 0.381739,-0.75961 0.38521,-0.259108 1.124396,-0.259108 0.739187,0 1.120926,0.259108 0.38521,0.259108 0.38521,0.75961 v 1.85141 q 0,0.533719 -0.38868,0.817189 Q 41.556825,27.78 40.82458,27.78 Z m 0.01045,-0.717531 q 0.277629,0 0.277629,-0.343265 v -1.902345 q 0,-0.287898 -0.270687,-0.287898 -0.305393,0 -0.305393,0.294541 v 1.900132 q 0,0.181598 0.06941,0.261324 0.0694,0.07752 0.229043,0.07752 z"
             style="font-size:5.64419px;line-height:1.25;font-family:Anton;-inkscape-font-specification:Anton;letter-spacing:0px;word-spacing:0px;fill:#1d1d3b;fill-opacity:1;stroke-width:0.264571"
             id="path7190" />
        </g>
      </g>
    </g>
  </g>
</svg>
