<?xml version="1.0" encoding="UTF-8" standalone="no"?>
<svg
   viewBox="0 0 23.810823 11.11208"
   height="42"
   width="90"
   version="1.1"
   id="svg3"
   sodipodi:docname="am.svg"
   inkscape:version="1.4 (86a8ad7, 2024-10-11)"
   xmlns:inkscape="http://www.inkscape.org/namespaces/inkscape"
   xmlns:sodipodi="http://sodipodi.sourceforge.net/DTD/sodipodi-0.dtd"
   xmlns="http://www.w3.org/2000/svg"
   xmlns:svg="http://www.w3.org/2000/svg">
  <sodipodi:namedview
     id="namedview3"
     pagecolor="#ffffff"
     bordercolor="#cccccc"
     borderopacity="1"
     inkscape:showpageshadow="0"
     inkscape:pageopacity="1"
     inkscape:pagecheckerboard="0"
     inkscape:deskcolor="#d1d1d1"
     inkscape:zoom="2.5882353"
     inkscape:cx="103.73864"
     inkscape:cy="79.397727"
     inkscape:window-width="1920"
     inkscape:window-height="1017"
     inkscape:window-x="-8"
     inkscape:window-y="-8"
     inkscape:window-maximized="1"
     inkscape:current-layer="svg3" />
  <defs
     id="defs1">
    <path
       id="A"
       d="M 20.9,4.95 A 3.53,3.53 0 0 0 17.65,8.2 l -0.01,0.53 v 7.94 a 0.26,0.26 45 0 0 0.26,0.26 h 6.53 a 0.26,0.26 135 0 0 0.26,-0.26 V 8.73 L 24.68,8.2 a 3.52,3.52 0 0 0 -3.25,-3.25 4.3,4.3 0 0 0 -0.53,0 z" />
  </defs>
  <g
     transform="matrix(0.499977,0,0,0.499977,1.3242424,1.3236713)"
     id="g3">
    <g
       fill="#00a1ae"
       fill-rule="evenodd"
       id="g1">
      <circle
         cx="8.4700003"
         cy="8.4700003"
         r="3.53"
         paint-order="stroke fill markers"
         id="circle1" />
      <path
         d="M 20.9,0 A 8.45,8.45 0 0 0 12.76,7.49 C 12.74,7.64 12.85,7.75 13,7.75 h 3.73 c 0.15,0 0.28,-0.12 0.32,-0.26 0.42,-1.82 1.99,-3.14 3.86,-3.26 0.15,-0.01 0.38,-0.01 0.53,0 2.13,0.13 3.83,1.83 3.96,3.96 a 9.37,9.37 0 0 1 0.01,0.53 v 6.8 1.14 a 0.26,0.26 45 0 0 0.26,0.26 h 3.7 a 0.26,0.26 135 0 0 0.26,-0.26 V 16.04 8.72 a 9,9 0 0 1 0.01,-0.53 4.2,4.2 0 0 1 0.02,-0.23 4.4,4.4 0 0 1 0.1,-0.49 l 0.07,-0.26 a 5,5 0 0 1 0.18,-0.49 l 0.12,-0.24 a 7,7 0 0 1 0.25,-0.43 6,6 0 0 1 0.3,-0.39 4.5,4.5 0 0 1 0.37,-0.37 L 31.23,5.14 A 7.55,7.55 0 0 1 31.64,4.86 L 31.88,4.72 A 4.9,4.9 0 0 1 32.36,4.5 l 0.25,-0.09 a 6.9,6.9 0 0 1 0.49,-0.12 6,6 0 0 1 0.49,-0.06 4.7,4.7 0 0 1 0.53,0 l 0.08,0.01 0.18,0.02 0.1,0.01 0.18,0.03 0.09,0.02 0.21,0.05 0.06,0.01 0.25,0.08 0.05,0.02 0.2,0.08 0.09,0.04 0.16,0.08 0.08,0.04 0.16,0.09 0.08,0.04 0.19,0.12 0.03,0.02 0.21,0.16 0.07,0.06 0.14,0.12 0.07,0.07 0.13,0.13 0.06,0.07 0.13,0.15 0.05,0.06 0.16,0.21 0.02,0.03 0.13,0.2 0.05,0.08 0.08,0.15 0.05,0.09 0.07,0.15 0.04,0.09 0.08,0.19 0.02,0.05 0.08,0.25 0.02,0.08 0.04,0.18 0.02,0.09 0.03,0.18 0.01,0.1 0.02,0.18 0.01,0.08 0.01,0.53 v 6.79 1.15 a 0.26,0.26 45 0 0 0.26,0.26 h 3.7 a 0.26,0.26 135 0 0 0.26,-0.26 V 8.73 8.2 A 8.48,8.48 0 0 0 34.13,0 10.2,10.2 0 0 0 33.6,0 8.48,8.48 0 0 0 27.69,2.67 c -0.1,0.11 -0.26,0.11 -0.36,0 A 8.46,8.46 0 0 0 21.43,0 h -0.26 z"
         paint-order="stroke fill markers"
         id="path1" />
    </g>
    <g
       fill="#0270a3"
       fill-rule="evenodd"
       id="g2">
      <use
         href="#A"
         paint-order="stroke fill markers"
         id="use1" />
      <use
         href="#A"
         x="12.7"
         paint-order="stroke fill markers"
         id="use2" />
      <path
         d="M 8.2,0 C 3.74,0.14 0.14,3.74 0,8.2 a 10.4,10.4 0 0 0 0,0.53 8.47,8.47 0 0 0 8.2,8.2 9.5,9.5 0 0 0 0.53,0 c 1.31,-0.05 2.59,-0.4 3.74,-1.02 0.13,-0.07 0.23,-0.01 0.23,0.13 v 0.63 a 0.26,0.26 45 0 0 0.26,0.26 h 3.7 a 0.26,0.26 135 0 0 0.26,-0.26 V 8.73 A 0.26,0.26 45 0 0 16.66,8.47 h -3.7 c -0.15,0 -0.26,0.12 -0.27,0.26 -0.13,2.13 -1.83,3.83 -3.96,3.96 a 5.2,5.2 0 0 1 -0.53,0 C 6.07,12.56 4.37,10.86 4.24,8.73 a 5.2,5.2 0 0 1 0,-0.53 C 4.37,6.07 6.07,4.37 8.2,4.24 a 5,5 0 0 1 0.53,0 c 1.39,0.09 2.65,0.87 3.37,2.07 0.07,0.13 0.15,0.12 0.19,-0.03 A 9.05,9.05 0 0 1 14.17,2.56 C 14.26,2.45 14.26,2.28 14.15,2.18 A 8.59,8.59 0 0 0 8.73,0 10.3,10.3 0 0 0 8.2,0 Z"
         paint-order="stroke fill markers"
         id="path2" />
    </g>
  </g>
</svg>
