<svg xmlns="http://www.w3.org/2000/svg" xmlns:xlink="http://www.w3.org/1999/xlink" width="160" height="105" viewBox="0 0 42.33 27.78" xmlns:v="https://vecta.io/nano"><path d="M0 27.52v-3c0-.15.12-.26.26-.26H1.6c.16 0 .29.11.33.26l.39 1.64c.01.03.03.05.06.05s.05-.02.06-.05l.39-1.64c.04-.15.17-.26.33-.26H4.5c.15 0 .26.12.26.26v3c0 .15-.12.26-.26.26h-.59c-.15 0-.26-.12-.26-.26V25.5c0-.02-.01-.03-.03-.04s-.03.01-.04.03l-.56 2.03c-.04.15-.18.26-.33.26h-.57c-.16 0-.29-.1-.34-.25l-.59-2.03c-.01-.02-.02-.03-.04-.03s-.03.02-.03.04v2.01c0 .15-.12.26-.26.26h-.6c-.15 0-.26-.12-.26-.26zm5.18 0l.5-3.01c.03-.15.16-.26.31-.26h1.54c.15 0 .28.11.31.26l.49 3.01c.01.07-.01.13-.05.18s-.11.08-.17.08h-.63c-.15 0-.28-.11-.3-.26l-.01-.05c-.02-.15-.15-.26-.3-.26h-.21c-.15 0-.28.11-.3.26v.04c-.02.15-.15.26-.3.26H5.4c-.07 0-.13-.03-.17-.08s-.06-.12-.05-.18zm1.57-.87h.03c.07 0 .13-.03.17-.08s.06-.12.05-.18l-.23-1.53h-.06l-.2 1.53c-.01.07.01.13.06.18s.11.08.17.08zm2 .87v-3c0-.15.12-.26.26-.26h.73c.16 0 .3.1.35.25l.4 1.19c.01.02.03.03.05.03s.04-.02.04-.04v-1.16c0-.15.12-.26.26-.26h.65c.15 0 .26.12.26.26v3c0 .15-.12.26-.26.26h-.66c-.16 0-.3-.1-.35-.25l-.44-1.26c-.01-.02-.03-.03-.05-.03s-.04.02-.04.04v1.23c0 .15-.12.26-.26.26h-.66c-.07 0-.14-.03-.19-.08s-.08-.12-.08-.19z"/><use xlink:href="#B"/><use xlink:href="#C"/><use xlink:href="#D"/><use xlink:href="#E"/><path d="M23.18 27.52v-3c0-.15.12-.26.26-.26h1.33c.16 0 .29.11.33.26l.39 1.64c.01.03.03.05.06.05s.05-.02.06-.05l.39-1.64c.04-.15.17-.26.33-.26h1.35c.15 0 .26.12.26.26v3c0 .15-.12.26-.26.26h-.59c-.15 0-.26-.12-.26-.26V25.5c0-.02-.01-.03-.03-.04s-.03.01-.04.03l-.56 2.03c-.04.15-.18.26-.33.26h-.57c-.16 0-.29-.1-.34-.25l-.59-2.03c-.01-.02-.02-.03-.04-.03s-.03.02-.03.04v2.01c0 .15-.12.26-.26.26h-.57c-.15 0-.26-.12-.26-.26z"/><use xlink:href="#E" x="6.92"/><use xlink:href="#C" x="14.99"/><use xlink:href="#D" x="14.99"/><use xlink:href="#B" x="24.26"/><path d="M40.83 27.78q-.73 0-1.12-.25-.39-.25-.39-.73v-1.65q0-.44.38-.68.39-.23 1.12-.23.74 0 1.12.23.39.23.39.68v1.65q0 .47-.39.73-.39.25-1.12.25zm.01-.64q.28 0 .28-.31v-1.69q0-.26-.27-.26-.31 0-.31.26v1.69q0 .16.07.23.07.07.23.07zM.04 22.76l.42-3c.02-.14.16-.26.3-.26h1.22c.15 0 .28.12.3.26l.42 3c.02.14-.08.26-.23.26h-.45c-.15 0-.28-.12-.3-.26l-.01-.04c-.02-.14-.15-.26-.3-.26h-.09c-.15 0-.28.12-.29.26v.04a.3.3 0 0 1-.29.26H.26c-.15 0-.25-.12-.23-.26zm1.37-.87c.11 0 .19-.12.17-.26l-.16-1.27c-.02-.14-.05-.26-.08-.26l-.17 1.53c-.02.15.09.26.24.26zm1.64.6v-2.47c0-.29.24-.53.53-.53h.89c.37 0 .65.07.84.21s.28.35.28.62v1.65c0 .33-.09.59-.26.77s-.47.27-.9.27h-.85c-.29 0-.53-.24-.53-.53zm1.22-.09c.19 0 .28-.06.28-.19v-1.82c0-.12-.02-.19-.07-.23s-.14-.05-.28-.05c-.06 0-.11.12-.11.26v1.76c0 .15.08.26.18.26zm1.74.35v-3c0-.15.12-.26.26-.26h1.04c.15 0 .29.11.32.26l.33 1.63c.01.02.03.04.05.04s.05-.02.05-.04l.33-1.63c.03-.15.16-.26.32-.26h1.06c.15 0 .26.12.26.26v3c0 .15-.12.26-.26.26h-.41c-.15 0-.26-.12-.26-.26v-2.01c0-.02-.01-.03-.03-.03s-.03.01-.03.02l-.47 2.03c-.04.15-.17.26-.32.26h-.4c-.16 0-.29-.11-.33-.26l-.5-2.03c0-.02-.02-.03-.04-.02s-.03.02-.03.03v2.01c0 .15-.12.26-.26.26h-.4c-.15 0-.26-.12-.26-.26z"/><use xlink:href="#F"/><path d="M11.85 22.75v-3c0-.15.12-.26.26-.26h.53c.16 0 .29.1.34.25l.33 1.18c0 .02.02.03.04.03s.03-.02.03-.04v-1.16c0-.15.12-.26.26-.26h.47c.15 0 .26.12.26.26v3c0 .15-.12.26-.26.26h-.48c-.16 0-.29-.1-.34-.25l-.37-1.26c-.01-.02-.02-.03-.04-.03s-.03.02-.03.04v1.23c0 .15-.12.26-.26.26h-.48c-.15 0-.26-.12-.26-.26z"/><use xlink:href="#F" x="4.35"/><path d="M17.42 23.02c-.47 0-.81-.08-1.02-.24s-.31-.41-.31-.75v-.07c0-.15.12-.26.26-.26h.49c.15 0 .26.12.26.26v.17c0 .08.02.14.05.19s.1.07.19.07.16-.02.19-.06.06-.1.06-.18c0-.11-.02-.19-.05-.27s-.09-.14-.16-.2a2.8 2.8 0 0 0-.32-.23l-.46-.3c-.35-.22-.52-.47-.52-.75 0-.3.1-.52.3-.68s.5-.23.89-.23c.47 0 .81.08 1 .25.14.12.24.29.28.51.03.14-.1.26-.24.26h-.52c-.14.01-.26-.1-.26-.24 0-.05-.02-.08-.06-.11s-.09-.04-.16-.04c-.08 0-.14.02-.18.05s-.06.07-.06.12.02.1.06.16.12.12.23.19l.59.38c.12.08.23.16.33.24a1 1 0 0 1 .24.3c.06.11.09.25.09.41 0 .33-.09.58-.27.77s-.49.28-.93.28z"/><path d="M19.4 23.02v-2.85h-.61v-.68h2.26v.68h-.61v2.85z"/><use xlink:href="#G"/><path d="M24.09 22.76l.42-3c.02-.15.15-.26.3-.26h1.22c.15 0 .28.11.3.26l.42 3c.01.07-.01.13-.05.18s-.11.08-.17.08h-.45a.3.3 0 0 1-.3-.26l-.01-.04a.3.3 0 0 0-.3-.26h-.09c-.15 0-.28.11-.29.26v.04c-.02.15-.14.26-.29.26h-.47c-.07 0-.13-.03-.17-.08s-.06-.12-.05-.18zm1.37-.87c.06-.01.11-.04.14-.09s.04-.11.03-.17l-.19-1.53h-.05l-.17 1.53c-.01.07.01.13.06.18s.11.08.18.08zm1.64.86v-3c0-.15.12-.26.26-.26h1.15c.37 0 .65.07.84.21s.28.35.28.62v1.65c0 .33-.09.59-.26.77s-.47.27-.9.27h-1.12c-.15 0-.26-.12-.26-.26zm1.22-.36c.19 0 .28-.06.28-.19v-1.82c0-.12-.02-.19-.07-.23s-.14-.05-.28-.05c-.1.04-.16.16-.11.26v1.76c-.01.06 0 .12.03.17s.09.08.14.1zm2.97.63q-.62 0-.95-.25-.33-.25-.33-.73V20.4q0-.44.32-.68.33-.23.95-.23.62 0 .95.23.33.23.33.68v1.65q0 .47-.33.73-.33.25-.94.25zm.01-.64q.23 0 .23-.31v-1.69q0-.26-.23-.26-.26 0-.26.26v1.69q0 .16.06.23.06.07.19.07z"/><use xlink:href="#G" x="11.65"/><path d="M37.25 22.75v-3c0-.15.12-.26.26-.26h.89l.53.01c.13.01.24.04.34.08.14.05.34.19.41.32.03.05.05.1.07.16.04.14.03.38.03.53v1.12l-.02.53a1.1 1.1 0 0 1-.09.29c-.06.13-.23.31-.36.37-.11.05-.25.09-.42.11-.15.02-.38.01-.53.01h-.85c-.15 0-.26-.12-.26-.26zm1.22-.36c.29-.13.28-.31.28-.45v-1.29c0-.15.04-.42-.07-.49l-.39-.05v2.02c-.01.06 0 .12.03.17s.09.08.14.1zm1.73.36v-3c0-.15.12-.26.26-.26H42c.15 0 .26.12.26.26v.15c0 .15-.12.26-.26.26h-.48c-.15 0-.26.12-.26.26v.16c0 .15.12.26.26.26h.44c.15 0 .26.12.26.26v.13c0 .15-.12.26-.26.26h-.44c-.15 0-.26.12-.26.26v.28c0 .15.12.26.26.26h.55c.15 0 .26.12.26.26v.16c0 .15-.12.26-.26.26h-1.6c-.15 0-.26-.12-.26-.26z"/><g transform="matrix(1 0 0 1 -.0007 .0001)"><g fill="#00a1ae" fill-rule="evenodd"><circle cx="8.47" cy="8.47" r="3.53" paint-order="stroke fill markers"/><path d="M20.9 0c-4.2.13-7.67 3.32-8.14 7.49-.02.15.09.26.24.26h3.73c.15 0 .28-.12.32-.26.42-1.82 1.99-3.14 3.86-3.26.15-.01.38-.01.53 0 2.13.13 3.83 1.83 3.96 3.96.01.15.01.38.01.53v6.8 1.14a.26.26 45 0 0 .26.26h3.7a.26.26 135 0 0 .26-.26v-.62-7.32a9 9 0 0 1 .01-.53 4.2 4.2 0 0 1 .02-.23 4.4 4.4 0 0 1 .1-.49l.07-.26a5 5 0 0 1 .18-.49l.12-.24a7 7 0 0 1 .25-.43 6 6 0 0 1 .3-.39 4.5 4.5 0 0 1 .37-.37c.06-.05.12-.1.18-.15.12-.09.3-.21.41-.28l.24-.14a4.9 4.9 0 0 1 .48-.22l.25-.09a6.9 6.9 0 0 1 .49-.12 6 6 0 0 1 .49-.06 4.7 4.7 0 0 1 .53 0l.08.01.18.02.1.01.18.03.09.02.21.05.06.01.25.08.05.02.2.08.09.04.16.08.08.04.16.09.08.04.19.12.03.02.21.16.07.06.14.12.07.07.13.13.06.07.13.15.05.06.16.21.02.03.13.2.05.08.08.15.05.09.07.15.04.09.08.19.02.05.08.25.02.08.04.18.02.09.03.18.01.1.02.18.01.08.01.53v6.79 1.15a.26.26 45 0 0 .26.26h3.7a.26.26 135 0 0 .26-.26V8.73 8.2C42.19 3.74 38.6.14 34.13 0a10.2 10.2 0 0 0-.53 0c-2.24.07-4.37 1.03-5.91 2.67-.1.11-.26.11-.36 0C25.8 1.04 23.68.07 21.43 0c-.15 0-.26 0-.26 0z" paint-order="stroke fill markers"/></g><g fill="#0270a3"><use xlink:href="#H" fill-rule="evenodd" paint-order="stroke fill markers"/><use xlink:href="#H" x="12.7" fill-rule="evenodd" paint-order="stroke fill markers"/><path d="M8.2 0C3.74.14.14 3.74 0 8.2a10.4 10.4 0 0 0 0 .53c.14 4.47 3.73 8.06 8.2 8.2a9.5 9.5 0 0 0 .53 0c1.31-.05 2.59-.4 3.74-1.02.13-.07.23-.01.23.13v.63a.26.26 45 0 0 .26.26h3.7a.26.26 135 0 0 .26-.26V8.73a.26.26 45 0 0-.26-.26h-3.7c-.15 0-.26.12-.27.26-.13 2.13-1.83 3.83-3.96 3.96a5.2 5.2 0 0 1-.53 0c-2.13-.13-3.83-1.83-3.96-3.96a5.2 5.2 0 0 1 0-.53c.13-2.13 1.83-3.83 3.96-3.96a5 5 0 0 1 .53 0c1.39.09 2.65.87 3.37 2.07.07.13.15.12.19-.03.33-1.37.97-2.64 1.88-3.72.09-.11.09-.28-.02-.38C12.65.84 10.73.07 8.73 0a10.3 10.3 0 0 0-.53 0z" fill-rule="evenodd" paint-order="stroke fill markers"/></g></g><defs ><path id="B" d="M12.82 27.52V25.2c0-.15-.12-.26-.26-.26h-.2c-.15 0-.26-.12-.26-.26v-.15c0-.15.12-.26.26-.26h2.14c.15 0 .26.12.26.26v.15c0 .15-.12.26-.26.26h-.2c-.15 0-.26.12-.26.26v2.32c0 .15-.12.26-.26.26h-.69c-.15 0-.26-.12-.26-.26z"/><path id="C" d="M15.1 27.52v-3c0-.15.12-.26.26-.26h1.91c.15 0 .26.12.26.26v.15c0 .15-.12.26-.26.26h-.67c-.15 0-.26.12-.26.26v.16c0 .15.12.26.26.26h.62c.15 0 .26.12.26.26v.13c0 .15-.12.26-.26.26h-.62c-.15 0-.26.12-.26.26v.28c0 .15.12.26.26.26h.75c.15 0 .26.12.26.26v.16c0 .15-.12.26-.26.26h-1.99c-.15 0-.26-.12-.26-.26z"/><path id="D" d="M18.03 27.52v-3c0-.15.12-.26.26-.26h.73c.16 0 .3.1.35.25l.4 1.19c.01.02.03.03.05.03s.04-.02.04-.04v-1.16c0-.15.12-.26.26-.26h.65c.15 0 .26.12.26.26v3c0 .15-.12.26-.26.26h-.66c-.16 0-.3-.1-.35-.25l-.44-1.26c-.01-.02-.03-.03-.05-.03s-.04.02-.04.04v1.23c0 .15-.12.26-.26.26h-.66c-.15 0-.26-.12-.26-.26z"/><path id="E" d="M21.51 27.52v-3c0-.15.12-.26.26-.26h.65c.15 0 .26.12.26.26v3c0 .15-.12.26-.26.26h-.65c-.15 0-.26-.12-.26-.26z"/><path id="F" d="M10.44 22.75v-3c0-.15.12-.26.26-.26h.47c.15 0 .26.12.26.26v3c0 .15-.12.26-.26.26h-.47c-.15 0-.26-.12-.26-.26z"/><path id="G" d="M21.33 22.75v-3c0-.15.12-.26.26-.26h1.32c.26 0 .46.04.6.12s.22.2.27.34.07.32.07.52c0 .19-.04.35-.11.46s-.2.19-.4.24c.16.02.28.08.34.17s.1.2.1.34v1.07c0 .15-.12.26-.26.26h-.49c-.15 0-.26-.12-.26-.26v-1.12c0-.1-.03-.17-.09-.19-.01 0-.02-.01-.03-.01-.14-.04-.26.09-.26.24v1.08c0 .15-.12.26-.26.26h-.51c-.07 0-.14-.03-.19-.08s-.08-.12-.08-.19zm1.3-1.96c.14 0 .21-.11.21-.32 0-.14-.02-.23-.05-.27s-.09-.06-.18-.06c-.07 0-.13.03-.17.08s-.07.12-.07.18v.12c0 .14.11.26.25.26z"/><path id="H" d="M20.9 4.95c-1.74.13-3.12 1.52-3.25 3.25l-.01.53v7.94a.26.26 45 0 0 .26.26h6.53a.26.26 135 0 0 .26-.26V8.73l-.01-.53c-.13-1.74-1.52-3.13-3.25-3.25a4.3 4.3 0 0 0-.53 0z"/></defs></svg>