<?xml version="1.0" encoding="UTF-8" standalone="no"?>
<svg
   width="140"
   height="35"
   viewBox="0 0 37.044171 9.2604167"
   version="1.1"
   id="svg28"
   sodipodi:docname="winsoftware_logo.svg"
   inkscape:version="1.4 (86a8ad7, 2024-10-11)"
   inkscape:export-filename="W:\oh!\customers\Win Software\brand\assets\winsoftware_imagotype.png"
   inkscape:export-xdpi="96"
   inkscape:export-ydpi="96"
   xmlns:inkscape="http://www.inkscape.org/namespaces/inkscape"
   xmlns:sodipodi="http://sodipodi.sourceforge.net/DTD/sodipodi-0.dtd"
   xmlns="http://www.w3.org/2000/svg"
   xmlns:svg="http://www.w3.org/2000/svg">
  <defs
     id="defs32" />
  <sodipodi:namedview
     id="namedview30"
     pagecolor="#ffffff"
     bordercolor="#cccccc"
     borderopacity="1"
     inkscape:pageshadow="0"
     inkscape:pageopacity="0"
     inkscape:pagecheckerboard="false"
     showgrid="false"
     inkscape:zoom="4"
     inkscape:cx="93.374999"
     inkscape:cy="45.375"
     inkscape:window-width="1920"
     inkscape:window-height="1017"
     inkscape:window-x="-8"
     inkscape:window-y="-8"
     inkscape:window-maximized="1"
     inkscape:current-layer="svg28"
     inkscape:showpageshadow="0"
     inkscape:deskcolor="#d1d1d1">
    <inkscape:grid
       type="xygrid"
       id="grid17336"
       units="px"
       spacingx="0.26460123"
       spacingy="0.26458333"
       originx="0"
       originy="0" />
  </sodipodi:namedview>
  <g
     id="g1"
     transform="translate(0.65644502,0.51592937)">
    <g
       transform="matrix(0.2216808,0,0,0.2216808,-18.275365,-19.324032)"
       fill-rule="evenodd"
       id="g26">
      <circle
         cx="117.87"
         cy="105.74"
         r="13.87"
         fill="#3ebac8"
         paint-order="stroke fill markers"
         id="circle16" />
      <circle
         cx="117.87"
         cy="105.74"
         r="12.37"
         fill="#ffffff"
         paint-order="stroke fill markers"
         id="circle18" />
      <path
         d="m 133.16,95.72 a 10,10 0 0 0 -1.42,0.34 c -0.84,0.26 -1.04,1.17 -0.6,1.92 1.11,1.89 1.8,4 2.02,6.18 a 18.5,18.5 0 0 1 0,3.17 c -0.22,2.09 -0.86,4.11 -1.89,5.94 -0.43,0.76 -0.21,1.66 0.63,1.91 a 10,10 0 0 0 1.26,0.29 12.1,12.1 0 0 0 3.16,0 10,10 0 0 0 8.29,-8.29 12.2,12.2 0 0 0 0,-3.16 10,10 0 0 0 -8.29,-8.29 c -0.86,-0.14 -2.3,-0.14 -3.16,0 z"
         fill="#3ebac8"
         paint-order="stroke fill markers"
         id="path20" />
      <path
         d="m 134.74,97.1 a 8.5,8.5 0 0 0 -3.64,0.83 15.37,15.37 0 0 1 0.13,15.4 8.5,8.5 0 1 0 3.51,-16.23 z m -33.73,-9.92 c 3.95,0 7.79,1.26 10.97,3.59 a 16.1,16.1 0 0 0 -0.01,29.93 c -3.18,2.33 -7.02,3.59 -10.97,3.59 -10.25,0 -18.56,-8.31 -18.56,-18.56 0,-10.25 8.31,-18.56 18.56,-18.56 z"
         paint-order="stroke fill markers"
         fill="#3075aa"
         id="path22" />
      <path
         d="m 111.24,90.26 0.6,0.41 c 0.47,0.34 0.39,0.8 -0.14,1.03 -5.54,2.43 -9.17,7.92 -9.19,14.04 0.01,6.12 3.64,11.6 9.18,14.04 0.54,0.23 0.62,0.69 0.14,1.03 a 18.6,18.6 0 0 1 -0.6,0.41 c -6.19,-2.65 -10.21,-8.74 -10.22,-15.48 0.01,-6.74 4.03,-12.83 10.23,-15.48 z"
         fill="#3ebac8"
         paint-order="stroke fill markers"
         id="path24" />
    </g>
    <g
       id="g17401"
       transform="translate(-7.3987592,-2.1743632)"
       inkscape:export-filename="W:\oh!\customers\Win Software\brand\assets\winsoftware_imagotype.png"
       inkscape:export-xdpi="96"
       inkscape:export-ydpi="96">
      <path
         d="m 22.858269,8.1408513 -0.367164,-3.439816 h 0.668277 l 0.188439,2.1713839 0.192324,-2.1713839 h 0.637194 l 0.18261,2.1713839 0.182611,-2.1713839 h 0.676047 l -0.372992,3.439816 H 24.02581 L 23.854856,6.4854399 23.691672,8.1408513 Z"
         id="path17338"
         style="font-size:3.95262px;line-height:1.25;font-family:Anton;-inkscape-font-specification:Anton;letter-spacing:0px;word-spacing:0px;fill:#1d1d3b;stroke-width:0.264602" />
      <path
         d="m 25.391505,8.1408513 v -3.439816 h 0.660505 v 3.439816 z"
         id="path17340"
         style="font-size:3.95262px;line-height:1.25;font-family:Anton;-inkscape-font-specification:Anton;letter-spacing:0px;word-spacing:0px;fill:#1d1d3b;stroke-width:0.264602" />
      <path
         d="m 26.323984,8.1408513 v -3.439816 h 0.703244 L 27.34194,6.3486291 V 4.7010353 h 0.660506 v 3.439816 H 27.334169 L 26.99226,6.4209433 v 1.719908 z"
         id="path17342"
         style="font-size:3.95262px;line-height:1.25;font-family:Anton;-inkscape-font-specification:Anton;letter-spacing:0px;word-spacing:0px;fill:#1d1d3b;stroke-width:0.264602" />
      <path
         d="m 30.050015,8.1408513 q -0.468183,0 -0.676048,-0.2303447 -0.205922,-0.230345 -0.205922,-0.7332644 V 6.8470813 h 0.676047 V 7.26938 q 0,0.117092 0.03497,0.184276 0.03691,0.065265 0.126272,0.065265 0.09325,0 0.128217,-0.053747 0.03691,-0.053747 0.03691,-0.1765977 0,-0.1554827 -0.03108,-0.2591378 -0.03108,-0.1055748 -0.108789,-0.1996322 -0.07576,-0.095977 -0.21175,-0.2226667 l -0.306945,-0.287932 q -0.343852,-0.3205632 -0.343852,-0.7332643 0,-0.4318965 0.202037,-0.6584024 0.20398,-0.2265056 0.588627,-0.2265056 0.470125,0 0.666335,0.2476206 0.198151,0.2476207 0.198151,0.7524598 H 30.127722 V 5.4688514 q 0,-0.069104 -0.0408,-0.1074943 -0.03885,-0.038391 -0.106847,-0.038391 -0.08159,0 -0.120445,0.046069 -0.03691,0.044149 -0.03691,0.1151724 0,0.071023 0.03885,0.1535632 0.03885,0.08254 0.153471,0.1900344 l 0.394367,0.3743101 q 0.118503,0.1113333 0.217578,0.2361034 0.09908,0.1228506 0.159299,0.2879311 0.06022,0.1631609 0.06022,0.3992644 0,0.4760459 -0.178726,0.7467011 -0.176782,0.2687356 -0.617767,0.2687356 z"
         id="path17344"
         style="font-size:3.95262px;line-height:1.25;font-family:Anton;-inkscape-font-specification:Anton;letter-spacing:0px;word-spacing:0px;fill:#1d1d3b;stroke-width:0.264601" />
      <path
         d="m 31.909146,8.1408513 q -0.870315,0 -0.870315,-0.8834435 V 6.1136812 q 0,-0.4027741 0.231178,-0.6421588 0.231177,-0.2412846 0.639137,-0.2412846 0.409902,0 0.641079,0.2412846 0.231178,0.2393847 0.231178,0.6421588 v 1.1437266 q 0,0.8834435 -0.872257,0.8834435 z m 0,-0.5243664 q 0.08742,0 0.12433,-0.060796 0.03885,-0.062696 0.03885,-0.1576899 V 6.0053882 q 0,-0.2488842 -0.163183,-0.2488842 -0.163184,0 -0.163184,0.2488842 v 1.3926107 q 0,0.094994 0.03691,0.1576899 0.03885,0.060796 0.126273,0.060796 z"
         id="path17346"
         style="font-size:3.95262px;line-height:1.25;font-family:Anton;-inkscape-font-specification:Anton;letter-spacing:0px;word-spacing:0px;fill:#1d1d3b;stroke-width:0.264601" />
      <path
         d="M 33.101942,8.1408513 V 5.8947175 H 32.975668 V 5.3665567 h 0.126274 V 5.169222 q 0,-0.4681864 0.470124,-0.4681864 0.221464,0 0.357452,0.056106 v 0.4275583 q -0.04857,-0.00968 -0.06411,-0.00968 -0.06022,0 -0.07382,0.044497 -0.0136,0.042563 -0.0136,0.1102753 v 0.036759 h 0.151529 v 0.5358993 h -0.13793 v 2.2383981 z"
         id="path17348"
         style="font-size:3.95262px;line-height:1.25;font-family:Anton;-inkscape-font-specification:Anton;letter-spacing:0px;word-spacing:0px;fill:#1d1d3b;stroke-width:0.264601" />
      <path
         d="m 34.751264,8.1408513 q -0.281687,0 -0.380762,-0.1181468 -0.09713,-0.1200837 -0.09713,-0.3660616 V 5.8457039 H 34.077159 V 5.3169484 h 0.196209 v -0.615913 h 0.676048 v 0.615913 h 0.196209 V 5.8457039 H 34.949416 V 7.493949 q 0,0.071663 0.02331,0.1007156 0.02331,0.029052 0.08936,0.029052 0.04662,0 0.08354,-0.00775 v 0.4725873 q -0.02331,0.00775 -0.1457,0.029053 -0.122388,0.023242 -0.248661,0.023242 z"
         id="path17350"
         style="font-size:3.95262px;line-height:1.25;font-family:Anton;-inkscape-font-specification:Anton;letter-spacing:0px;word-spacing:0px;fill:#1d1d3b;stroke-width:0.264601" />
      <path
         d="M 35.672088,8.1408513 35.320466,5.2302379 h 0.596398 l 0.192324,1.5639695 0.169011,-1.5639695 h 0.666335 l 0.200094,1.5639695 0.161241,-1.5639695 h 0.598341 l -0.355507,2.9106134 h -0.732386 l -0.209808,-1.6512881 -0.18261,1.6512881 z"
         id="path17352"
         style="font-size:3.95262px;line-height:1.25;font-family:Anton;-inkscape-font-specification:Anton;letter-spacing:0px;word-spacing:0px;fill:#1d1d3b;stroke-width:0.264601" />
      <path
         d="m 38.667677,8.1408513 q -0.242833,0 -0.371049,-0.1101929 -0.126273,-0.110193 -0.172898,-0.3020806 -0.04662,-0.1918877 -0.04662,-0.4350721 0,-0.2602832 0.05245,-0.4255727 0.05245,-0.1671892 0.178726,-0.2735824 0.128216,-0.1063931 0.351623,-0.1804883 L 39.091178,6.2694716 V 5.9768904 q 0,-0.2298853 -0.153471,-0.2298853 -0.139871,0 -0.139871,0.186188 v 0.170989 h -0.676048 q -0.0019,-0.015199 -0.0019,-0.037998 0,-0.024698 0,-0.055097 0,-0.4255727 0.20398,-0.6022613 0.205923,-0.1785885 0.650793,-0.1785885 0.23312,0 0.417673,0.081695 0.184553,0.079795 0.291401,0.2374848 0.108788,0.1576898 0.108788,0.389475 v 2.171561 H 39.100891 V 7.772275 q -0.05051,0.1785885 -0.167069,0.2735824 -0.11656,0.094994 -0.266145,0.094994 z m 0.273916,-0.5281661 q 0.08548,0 0.11656,-0.070296 0.03108,-0.070296 0.03108,-0.1519903 V 6.5962506 q -0.143757,0.056996 -0.223406,0.1443908 -0.07965,0.085495 -0.07965,0.2526838 v 0.3666764 q 0,0.2526837 0.155413,0.2526837 z"
         id="path17354"
         style="font-size:3.95262px;line-height:1.25;font-family:Anton;-inkscape-font-specification:Anton;letter-spacing:0px;word-spacing:0px;fill:#1d1d3b;stroke-width:0.264601" />
      <path
         d="M 40.060569,8.1408495 V 5.2647524 h 0.70713 v 0.3202054 q 0.05051,-0.1668136 0.178725,-0.2607661 0.128216,-0.093952 0.322482,-0.093952 v 0.573302 q -0.08548,0 -0.20398,0.019174 -0.118502,0.017257 -0.207864,0.049853 -0.08936,0.030679 -0.08936,0.069027 v 2.1992556 z"
         id="path17356"
         style="font-size:3.95262px;line-height:1.25;font-family:Anton;-inkscape-font-specification:Anton;letter-spacing:0px;word-spacing:0px;fill:#1d1d3b;stroke-width:0.264601" />
      <path
         d="m 42.25578,8.1408513 q -0.310826,0 -0.495379,-0.1139927 Q 41.575848,7.912866 41.496198,7.6981797 41.416548,7.4834935 41.416548,7.1814127 V 6.0357862 q 0,-0.3970746 0.23312,-0.6003615 0.23312,-0.2051869 0.64108,-0.2051869 0.839232,0 0.839232,0.8055484 v 0.2070867 q 0,0.3761759 -0.0078,0.5053676 h -1.010186 v 0.5509647 q 0,0.075995 0.0098,0.1500903 0.0098,0.072196 0.04274,0.1196924 0.03497,0.047497 0.110731,0.047497 0.108789,0 0.135986,-0.091194 0.0272,-0.093094 0.0272,-0.2412844 V 7.0104237 h 0.691589 v 0.1614897 q 0,0.3191795 -0.08159,0.5357656 -0.07965,0.2146863 -0.271974,0.3248792 -0.190451,0.1082931 -0.520704,0.1082931 z M 42.108138,6.4100622 H 42.43839 V 6.0262868 q 0,-0.1538902 -0.03885,-0.2203859 -0.03885,-0.068396 -0.11656,-0.068396 -0.08353,0 -0.130158,0.064596 -0.04468,0.064596 -0.04468,0.2241857 z"
         id="path17358"
         style="font-size:3.95262px;line-height:1.25;font-family:Anton;-inkscape-font-specification:Anton;letter-spacing:0px;word-spacing:0px;fill:#1d1d3b;stroke-width:0.264601" />
    </g>
  </g>
</svg>
