<svg xmlns="http://www.w3.org/2000/svg" width="163" height="48" viewBox="0 0 43.13 12.7" xmlns:v="https://vecta.io/nano"><g fill="#1d1d3b"><path d="M22.83 7.84l-.34-3.25c0-.02.01-.05.02-.07s.04-.03.06-.03h.47c.05 0 .09.04.1.09l.17 1.98.19-1.98c0-.05.05-.09.1-.09h.44c.05 0 .09.04.1.09l.16 1.98.18-1.98c0-.05.05-.09.1-.09h.48c.02 0 .05.01.06.03s.02.04.02.07l-.35 3.25c-.01.05-.05.09-.1.09h-.62c-.05 0-.1-.04-.1-.09l-.15-1.47-.16 1.47c-.01.05-.05.09-.1.09h-.63c-.05 0-.1-.04-.1-.09zm2.52 0V4.59c0-.02.01-.05.03-.07s.04-.03.06-.03h.46c.05 0 .09.04.09.09v3.25c0 .05-.04.09-.09.09h-.46c-.02 0-.05-.01-.06-.03s-.03-.04-.03-.07z"/><path d="M26.3 7.84V4.59c0-.02.01-.05.03-.07s.04-.03.06-.03h.51c.05 0 .1.04.11.09l.27 1.46.02-1.46c0-.02.01-.05.03-.07s.04-.03.06-.03h.46c.02 0 .05.01.06.03s.03.04.03.07v3.25c0 .02-.01.05-.03.07s-.04.03-.06.03h-.47c-.05 0-.1-.04-.11-.09l-.3-1.54-.02 1.54c0 .02-.01.05-.03.07s-.04.03-.06.03h-.47c-.02 0-.05-.01-.06-.03s-.03-.04-.03-.07zm3.71.1a.9.9 0 0 1-.5-.16c-.04-.03-.09-.09-.12-.14-.09-.14-.14-.33-.15-.57v-.18-.15c0-.05.04-.09.09-.09h.47c.02 0 .05.01.06.03s.03.04.03.07v.24c0 .05 0 .13.01.18.01.06.03.11.07.13.04.03.13.03.17.01.02-.01.06-.07.06-.12s.01-.14 0-.19c0-.03-.01-.06-.01-.09-.01-.05-.04-.13-.06-.17l-.01-.02-.11-.14-.09-.09-.13-.13-.16-.16-.13-.13a1 1 0 0 1-.27-.57v-.18c.01-.2.06-.36.14-.49.03-.04.08-.11.12-.14.11-.09.25-.15.42-.16h.18c.21.01.38.07.49.17.04.03.09.1.12.14.09.14.13.34.14.59 0 .05-.04.09-.09.09h-.5c-.05 0-.09-.04-.09-.09v-.05c0-.05 0-.14-.03-.18-.01-.01-.05-.05-.1-.06-.01 0-.06-.01-.11.02-.02.01-.06.06-.06.11 0 .02 0 .08.01.13.02.06.05.12.11.18.03.04.09.09.13.13l.26.25.13.13.1.12.11.15.06.12c.02.04.05.13.06.18l.03.2v.18c-.01.24-.05.44-.13.59-.02.04-.07.11-.11.15-.11.11-.25.17-.44.18h-.09z"/><path d="M31.96 7.94q-.85 0-.85-.88V5.91q0-.4.23-.64.23-.24.63-.24.4 0 .62.24.23.24.23.64v1.14q0 .88-.85.88zm0-.53q.08 0 .12-.06.04-.06.04-.16V5.8q0-.25-.16-.25-.16 0-.16.25v1.39q0 .1.04.16.04.06.12.06z"/><path d="M33.16 5.69h-.03c-.02 0-.05-.01-.06-.03s-.03-.04-.03-.07v-.34c0-.05.04-.09.09-.09h.03v-.2c0-.31.15-.47.46-.47.15 0 .26.02.35.06v.43c-.03-.01-.05-.01-.06-.01-.04 0-.06.01-.07.04s-.02.07-.02.12v.04h.06c.02 0 .05.01.06.03s.03.04.03.07v.35c0 .02-.01.05-.03.07s-.04.03-.06.03h-.04v2.15c0 .02-.01.05-.03.07s-.04.03-.06.03h-.49c-.05 0-.09-.04-.09-.09z"/><path d="M34.72 7.93c-.08-.01-.15-.03-.21-.05-.04-.02-.1-.09-.12-.13-.02-.05-.04-.12-.05-.2 0-.05 0-.13 0-.19V5.73c0-.02-.01-.05-.03-.07s-.04-.03-.06-.03h-.01c-.02 0-.05-.01-.06-.03s-.03-.04-.03-.07v-.34c0-.02.01-.05.03-.07s.04-.03.06-.03h.01c.02 0 .05-.01.06-.03s.03-.04.03-.07v-.43c0-.02.01-.05.03-.07s.04-.03.06-.03h.48c.02 0 .05.01.06.03s.03.04.03.07v.43c0 .02.01.05.03.07s.04.03.06.03h.01c.02 0 .05.01.06.03s.03.04.03.07v.34c0 .02-.01.05-.03.07s-.04.03-.06.03h-.01c-.02 0-.05.01-.06.03s-.03.04-.03.07v1.44c0 .05 0 .14.01.19 0 .01.03.05.07.05h.07.05v.38c0 .05-.04.1-.09.11l-.17.03h-.03-.09z"/><path d="M35.73 7.84l-.32-2.72c0-.02 0-.05.02-.06s.04-.03.06-.03h.4c.05 0 .1.04.1.09l.17 1.38c.02.01.02.01.02 0l.14-1.38c.01-.05.05-.09.1-.09h.41c.05 0 .1.04.1.09l.17 1.38c.02.01.02.01.02 0l.14-1.38c.01-.05.05-.09.1-.09h.46c.02 0 .05.01.06.03s.02.04.02.06l-.34 2.72c-.01.05-.05.09-.1.09h-.5c-.05 0-.1-.04-.1-.09l-.18-1.47c-.02-.01-.02-.01-.02 0l-.16 1.47c-.01.05-.05.09-.1.09h-.57c-.05 0-.1-.04-.1-.09zm2.97.1c-.22 0-.37-.07-.45-.22s-.12-.36-.12-.63c0-.22.03-.39.09-.51s.14-.21.24-.26a2.8 2.8 0 0 1 .47-.19l.19-.06v-.01-.28c0-.08-.02-.13-.05-.17s-.06-.06-.1-.06-.07.02-.1.05-.04.08-.04.14v.08c0 .02-.01.05-.03.06s-.04.03-.06.03h-.48c-.02 0-.05-.01-.06-.03s-.03-.04-.03-.06h0c0-.28.06-.48.19-.6s.35-.18.64-.18c.24 0 .43.06.58.19s.22.3.22.52v2.08c0 .02-.01.05-.03.06s-.04.03-.06.03h-.49c-.02 0-.05-.01-.06-.03s-.03-.04-.03-.06v-.16c0-.05-.01-.05-.03 0-.03.08-.08.14-.13.19a.4.4 0 0 1-.26.1zm.27-.53c.05 0 .09-.02.11-.06s.03-.1.03-.16v-.7c0-.05-.04-.08-.08-.05-.06.03-.11.07-.14.11-.05.06-.07.14-.07.25v.37c0 .17.05.25.15.25zm1.22-2.35h.5c.02 0 .05.01.06.03s.03.04.03.07v.13c0 .05.01.05.03.01s.04-.08.07-.11c.03-.04.1-.09.15-.11s.09-.03.14-.04.09.04.09.09v.39c0 .05-.04.09-.09.1l-.14.02-.18.04-.02.01c-.04.02-.06.1-.06.15v2.02c0 .02-.01.05-.03.07s-.04.03-.06.03h-.5c-.02 0-.05-.01-.06-.03s-.03-.04-.03-.07v-2.7c0-.02.01-.05.03-.07s.04-.03.06-.03z"/><path d="M42.18 7.93c-.2-.01-.36-.07-.48-.17-.04-.03-.09-.1-.11-.14-.08-.14-.13-.32-.14-.55v-.18-.96-.18c.01-.18.07-.33.16-.44.03-.04.09-.09.13-.12a.9.9 0 0 1 .47-.15 1.9 1.9 0 0 1 .18 0c.46.03.7.26.73.71v.18.02.18.32c0 .05-.04.09-.09.09h-.8c-.02 0-.05.01-.06.03s-.03.04-.03.06v.37.18c0 .02 0 .04.01.05.01.05.04.13.08.16.04.02.12.02.16-.01.01-.01.05-.06.06-.11 0-.01.01-.06.01-.11v-.18-.09c0-.02.01-.05.03-.06s.04-.03.06-.03h.49c.02 0 .05.01.06.03s.03.04.03.06v.16c-.01.24-.06.43-.14.57-.03.04-.08.11-.12.14-.12.1-.28.15-.51.17h-.09zm.27-1.82v-.18-.18c-.01-.09-.03-.15-.06-.18s-.13-.04-.17-.01-.07.1-.08.19c0 .05 0 .13 0 .18v.18c0 .02.01.05.03.06s.04.03.06.03h.14c.02 0 .05-.01.06-.03s.03-.04.03-.06z"/></g><g transform="matrix(.3421 0 0 .3421 -28.2128 -29.836)" fill-rule="evenodd"><circle cx="117.87" cy="105.74" r="13.87" fill="#3ebac8" paint-order="stroke fill markers"/><circle cx="117.87" cy="105.74" r="12.37" fill="#fff" paint-order="stroke fill markers"/><path d="M133.16 95.72a10 10 0 0 0-1.42.34c-.84.26-1.04 1.17-.6 1.92 1.11 1.89 1.8 4 2.02 6.18a18.5 18.5 0 0 1 0 3.17c-.22 2.09-.86 4.11-1.89 5.94-.43.76-.21 1.66.63 1.91a10 10 0 0 0 1.26.29 12.1 12.1 0 0 0 3.16 0 10 10 0 0 0 8.29-8.29 12.2 12.2 0 0 0 0-3.16 10 10 0 0 0-8.29-8.29c-.86-.14-2.3-.14-3.16 0z" fill="#3ebac8" paint-order="stroke fill markers"/><path d="M134.74 97.1a8.5 8.5 0 0 0-3.64.83 15.37 15.37 0 0 1 .13 15.4 8.5 8.5 0 1 0 3.51-16.23zm-33.73-9.92c3.95 0 7.79 1.26 10.97 3.59a16.1 16.1 0 0 0-.01 29.93c-3.18 2.33-7.02 3.59-10.97 3.59-10.25 0-18.56-8.31-18.56-18.56S90.75 87.17 101 87.17z" paint-order="stroke fill markers" fill="#3075aa"/><path d="M111.24 90.26l.6.41c.47.34.39.8-.14 1.03-5.54 2.43-9.17 7.92-9.19 14.04.01 6.12 3.64 11.6 9.18 14.04.54.23.62.69.14 1.03a18.6 18.6 0 0 1-.6.41c-6.19-2.65-10.21-8.74-10.22-15.48.01-6.74 4.03-12.83 10.23-15.48z" fill="#3ebac8" paint-order="stroke fill markers"/></g></svg>