<svg xmlns="http://www.w3.org/2000/svg" width="130" height="45" viewBox="0 0 34.396 11.906" xmlns:v="https://vecta.io/nano"><g transform="matrix(.253677 0 0 .253677 -19.646409 -20.899158)"><path d="M149.432 110.266l-.976-9.116c-.007-.067.014-.134.059-.184s.109-.079.176-.079h1.357c.149 0 .274.114.287.263l.492 5.557c.001.012.011.021.023.021s.022-.009.023-.021l.492-5.557c.013-.149.138-.263.287-.263h1.268c.149 0 .274.114.286.263l.472 5.557c.001.011.011.02.022.02s.021-.009.022-.02l.472-5.557c.013-.149.137-.263.286-.263h1.38c.067 0 .131.029.176.079s.066.117.059.184l-.998 9.116c-.016.149-.143.262-.293.262h-1.784c-.15 0-.276-.113-.291-.263l-.428-4.121c-.001-.014-.013-.024-.027-.024s-.025.01-.027.024l-.408 4.121c-.015.149-.14.263-.29.263h-1.829c-.15 0-.276-.113-.292-.263zm7.283-.002v-9.113c0-.146.118-.264.264-.264h1.335c.146 0 .264.118.264.264v9.113c0 .146-.118.264-.264.264h-1.335c-.146 0-.264-.118-.264-.264zm2.743 0v-9.113c0-.146.118-.264.264-.264h1.458a.32.32 0 0 1 .314.259l.787 4.094c.003.013.014.021.027.02s.023-.012.023-.025v-4.085c0-.146.118-.264.264-.264h1.335c.146 0 .264.118.264.264v9.113c0 .146-.118.264-.264.264h-1.357a.32.32 0 0 1-.316-.259l-.862-4.308c-.003-.013-.015-.022-.028-.021s-.024.013-.024.026v4.298c0 .146-.118.264-.264.264h-1.357c-.146 0-.264-.118-.264-.264zm10.717.347c-.616-.034-1.096-.188-1.441-.463-.114-.091-.272-.268-.352-.391-.252-.389-.391-.93-.419-1.625l-.005-.528v-.415c0-.146.118-.264.264-.264h1.369c.146 0 .264.118.264.264v.673l.019.527c.03.181.094.308.193.381a.58.58 0 0 0 .504.02c.067-.037.164-.198.186-.341.023-.149.02-.386.009-.532-.007-.091-.018-.177-.033-.256a2.16 2.16 0 0 0-.174-.496l-.033-.06c-.073-.126-.228-.306-.327-.414l-.257-.266-.374-.372-.457-.457-.37-.377c-.454-.503-.71-1.048-.769-1.634-.015-.145-.014-.382-.006-.528.03-.574.162-1.041.395-1.4.079-.122.236-.301.347-.395.313-.265.716-.417 1.209-.456a4.7 4.7 0 0 1 .528-.003c.612.036 1.088.203 1.427.499a2.11 2.11 0 0 1 .337.404c.249.406.387.965.414 1.676.006.146-.113.264-.259.264h-1.436c-.147 0-.266-.117-.268-.264l-.002-.134c-.002-.146.007-.396-.073-.515a.45.45 0 0 0-.277-.162.56.56 0 0 0-.313.055.5.5 0 0 0-.188.303c-.008.054-.009.22.033.359.053.173.158.348.315.527.096.11.269.271.374.372l.741.712.377.37.301.335a4.19 4.19 0 0 1 .312.426 2.75 2.75 0 0 1 .174.343 3.67 3.67 0 0 1 .165.501c.041.178.067.372.078.582a6.65 6.65 0 0 1 .002.528c-.025.692-.153 1.252-.384 1.678a2.21 2.21 0 0 1-.309.426c-.304.305-.732.478-1.284.518l-.264.009zm5.61.007q-2.458 0-2.458-2.548v-3.3q0-1.167.651-1.852.662-.696 1.807-.696 1.145 0 1.796.696.662.685.662 1.852v3.3q0 2.548-2.458 2.548zm0-1.515q.236 0 .348-.168.112-.168.112-.46v-4.018q0-.718-.46-.718-.46 0-.46.718v4.018q0 .292.112.46.112.168.348.168zm3.473-4.938h-.084c-.07 0-.137-.028-.186-.077a.26.26 0 0 1-.076-.187l.007-.965c.001-.146.12-.264.266-.264h.073v-.561c0-.883.441-1.324 1.324-1.324.419 0 .756.052 1.01.157v1.212c-.075-.022-.135-.034-.18-.034-.105 0-.172.037-.202.112s-.045.187-.045.337v.101h.162c.146 0 .264.118.264.264v.987c0 .146-.118.264-.264.264h-.118v6.077c0 .146-.118.264-.264.264h-1.425c-.146 0-.264-.118-.264-.264zm4.499 6.443c-.244-.021-.442-.072-.594-.154a1 1 0 0 1-.352-.381c-.072-.151-.117-.338-.137-.56-.013-.145-.011-.382-.011-.528v-4.601c0-.146-.118-.264-.264-.264h-.022c-.146 0-.264-.118-.264-.264v-.965c0-.146.118-.264.264-.264h.022c.146 0 .264-.118.264-.264v-1.212c0-.146.118-.264.264-.264h1.38c.146 0 .264.118.264.264v1.212c0 .146.118.264.264.264h.033c.146 0 .264.118.264.264v.965c0 .146-.118.264-.264.264h-.033c-.146 0-.264.118-.264.264v4.085c0 .146-.009.384.02.527.006.029.079.152.193.152l.213-.011.135-.011v1.083c0 .146-.115.293-.258.318l-.497.073-.092.008-.264.01zm2.931-.342l-.935-7.691c-.008-.066.013-.133.057-.183s.108-.079.175-.079h1.155a.3.3 0 0 1 .297.262l.485 3.887c.002.015.015.027.031.027s.029-.012.03-.028l.415-3.886c.016-.149.142-.263.292-.263h1.189a.3.3 0 0 1 .297.262l.495 3.887c.002.015.015.027.031.027s.028-.012.03-.027l.405-3.886c.016-.149.141-.263.291-.263h1.324c.067 0 .13.029.174.079a.23.23 0 0 1 .056.183l-.988 7.692a.3.3 0 0 1-.298.262h-1.436a.3.3 0 0 1-.297-.262l-.518-4.145c-.002-.016-.015-.027-.031-.027s-.029.012-.031.028l-.458 4.144c-.017.149-.143.262-.293.262h-1.649c-.151 0-.278-.112-.296-.262zm8.577.352c-.636 0-1.074-.21-1.313-.629-.232-.426-.348-1.033-.348-1.818 0-.643.082-1.137.247-1.481.172-.344.408-.595.707-.752.299-.165.756-.344 1.369-.539l.539-.18v-.022-.819c0-.217-.045-.382-.135-.494-.082-.12-.183-.18-.303-.18-.105 0-.198.049-.281.146-.075.097-.112.228-.112.393v.23c0 .146-.118.264-.264.264h-1.38c-.146 0-.264-.118-.264-.264v-.005c0-.808.187-1.384.561-1.728.382-.344.999-.516 1.852-.516.681 0 1.235.18 1.661.539.426.352.64.853.64 1.504v5.999c0 .146-.118.264-.264.264h-1.425c-.146 0-.264-.118-.264-.264v-.448c0-.146-.031-.149-.089-.015a1.46 1.46 0 0 1-.383.537 1.09 1.09 0 0 1-.752.281zm.774-1.526a.32.32 0 0 0 .314-.18c.067-.127.101-.281.101-.46v-2.026c0-.146-.112-.224-.241-.156a1.32 1.32 0 0 0-.41.318c-.135.172-.202.412-.202.718v1.055c0 .486.146.73.438.73zm3.524-6.779h1.436c.146 0 .264.118.264.264v.381c0 .146.032.149.095.018.058-.12.129-.227.213-.319a1.57 1.57 0 0 1 .424-.308 1.49 1.49 0 0 1 .418-.119c.144-.02.263.101.263.247v1.111c0 .146-.118.263-.264.276-.127.011-.26.029-.399.056s-.375.078-.512.128l-.059.024c-.127.055-.181.292-.181.438v5.757c0 .146-.118.264-.264.264h-1.436c-.146 0-.264-.118-.264-.264v-7.687c0-.146.118-.264.264-.264zm5.739 8.297c-.59-.037-1.048-.202-1.374-.495a2.1 2.1 0 0 1-.329-.41c-.237-.401-.369-.933-.396-1.595l-.005-.528v-2.772l.009-.528c.038-.52.191-.944.46-1.273a2.26 2.26 0 0 1 .388-.356c.357-.248.806-.388 1.348-.422.146-.009.382-.009.528 0 1.316.079 2.014.762 2.096 2.052l.008.528v.067l-.001.528-.013.931c-.004.146-.127.264-.273.264h-2.323c-.146 0-.264.118-.264.264v1.066l.01.528.018.154c.022.144.105.387.232.449a.55.55 0 0 0 .462-.025.59.59 0 0 0 .168-.307 3.43 3.43 0 0 0 .026-.327l.004-.517v-.269c0-.146.118-.264.264-.264h1.425c.146 0 .264.118.264.264l-.005.471c-.027.692-.162 1.239-.404 1.641a1.98 1.98 0 0 1-.336.404c-.335.285-.822.445-1.459.478l-.264.007zm.78-5.25v-.527l-.011-.528c-.024-.254-.087-.43-.187-.529s-.372-.104-.487-.018c-.126.095-.204.277-.233.546-.016.145-.013.382-.013.528v.527c0 .146.118.264.264.264h.403c.146 0 .264-.118.264-.264z" fill="#1d1d3b"/><g transform="matrix(.997926 0 0 .997926 .171018 .180841)" fill-rule="evenodd"><circle cx="117.873" cy="105.741" r="13.868" fill="#3ebac8" paint-order="stroke fill markers"/><circle cx="117.873" cy="105.741" r="12.368" fill="#fff" paint-order="stroke fill markers"/><path d="M133.16 95.722a10 10 0 0 0-1.425.337c-.835.263-1.041 1.165-.599 1.922a15.37 15.37 0 0 1 2.022 6.176 18.5 18.5 0 0 1-.001 3.169 15.37 15.37 0 0 1-1.891 5.941c-.43.764-.208 1.663.631 1.913a10 10 0 0 0 1.261.288c.865.14 2.297.141 3.162.004a10.01 10.01 0 0 0 8.295-8.295c.137-.865.137-2.297 0-3.162a10.01 10.01 0 0 0-8.295-8.295c-.865-.137-2.297-.137-3.162.002z" fill="#3ebac8" paint-order="stroke fill markers"/><path d="M134.741 97.096a8.5 8.5 0 0 0-3.636.829 15.368 15.368 0 0 1 .129 15.403 8.5 8.5 0 1 0 3.508-16.232zm-33.736-9.914a18.56 18.56 0 0 1 10.972 3.592 16.1 16.1 0 0 0-.006 29.933 18.56 18.56 0 0 1-10.966 3.594c-10.25 0-18.559-8.31-18.559-18.56s8.309-18.559 18.559-18.559z" paint-order="stroke fill markers" fill="#3075aa"/><path d="M111.238 90.259l.596.411c.475.341.394.799-.141 1.033a15.37 15.37 0 0 0-.003 28.074c.535.235.615.692.14 1.032l-.599.411a16.87 16.87 0 0 1 .008-30.961z" fill="#3ebac8" paint-order="stroke fill markers"/></g></g></svg>